HIERARCHY
ROOT Hips
{
	OFFSET 0.00000 0.00000 0.00000
	CHANNELS 6 Xposition Yposition Zposition Zrotation Yrotation Xrotation 
	JOINT LHipJoint
	{
		OFFSET 0 0 0
		CHANNELS 3 Zrotation Yrotation Xrotation
		JOINT LeftUpLeg
		{
			OFFSET 3.13874 -1.57224 1.49786
			CHANNELS 3 Zrotation Yrotation Xrotation
			JOINT LeftLeg
			{
				OFFSET 2.10955 -5.79594 0.00000
				CHANNELS 3 Zrotation Yrotation Xrotation
				JOINT LeftFoot
				{
					OFFSET 2.41843 -6.64458 0.00000
					CHANNELS 3 Zrotation Yrotation Xrotation
					JOINT LeftToeBase
					{
						OFFSET 0.04713 -0.12948 1.66229
						CHANNELS 3 Zrotation Yrotation Xrotation
						End Site
						{
							OFFSET 0.00000 -0.00000 0.85167
						}
					}
				}
			}
		}
	}
	JOINT RHipJoint
	{
		OFFSET 0 0 0
		CHANNELS 3 Zrotation Yrotation Xrotation
		JOINT RightUpLeg
		{
			OFFSET -3.13988 -1.57224 1.49786
			CHANNELS 3 Zrotation Yrotation Xrotation
			JOINT RightLeg
			{
				OFFSET -2.15006 -5.90725 0.00000
				CHANNELS 3 Zrotation Yrotation Xrotation
				JOINT RightFoot
				{
					OFFSET -2.34496 -6.44273 0.00000
					CHANNELS 3 Zrotation Yrotation Xrotation
					JOINT RightToeBase
					{
						OFFSET -0.08699 -0.23900 1.55223
						CHANNELS 3 Zrotation Yrotation Xrotation
						End Site
						{
							OFFSET -0.00000 -0.00000 0.80281
						}
					}
				}
			}
		}
	}
	JOINT LowerBack
	{
		OFFSET 0 0 0
		CHANNELS 3 Zrotation Yrotation Xrotation
		JOINT Spine
		{
			OFFSET 0.01292 1.96517 -0.16495
			CHANNELS 3 Zrotation Yrotation Xrotation
			JOINT Spine1
			{
				OFFSET 0.02122 1.88666 0.19706
				CHANNELS 3 Zrotation Yrotation Xrotation
				JOINT Neck
				{
					OFFSET 0 0 0
					CHANNELS 3 Zrotation Yrotation Xrotation
					JOINT Neck1
					{
						OFFSET -0.01683 1.81591 0.07903
						CHANNELS 3 Zrotation Yrotation Xrotation
						JOINT Head
						{
							OFFSET 0.00815 1.74013 -0.47700
							CHANNELS 3 Zrotation Yrotation Xrotation
							End Site
							{
								OFFSET -0.00204 1.83225 -0.16933
							}
						}
					}
				}
				JOINT LeftShoulder
				{
					OFFSET 0 0 0
					CHANNELS 3 Zrotation Yrotation Xrotation
					JOINT LeftArm
					{
						OFFSET 3.38482 1.41533 0.19802
						CHANNELS 3 Zrotation Yrotation Xrotation
						JOINT LeftForeArm
						{
							OFFSET 4.32712 -0.00000 0.00000
							CHANNELS 3 Zrotation Yrotation Xrotation
							JOINT LeftHand
							{
								OFFSET 3.28587 -0.00000 -0.00000
								CHANNELS 3 Zrotation Yrotation Xrotation
								JOINT LeftFingerBase
								{
									OFFSET 0 0 0
									CHANNELS 3 Zrotation Yrotation Xrotation
									JOINT LeftHandIndex1
									{
										OFFSET 0.43316 -0.00000 -0.00000
										CHANNELS 3 Zrotation Yrotation Xrotation
										End Site
										{
											OFFSET 0.34922 -0.00000 -0.00000
										}
									}
								}
								JOINT LThumb
								{
									OFFSET 0 0 0
									CHANNELS 3 Zrotation Yrotation Xrotation
									End Site
									{
										OFFSET 0.35456 -0.00000 0.35456
									}
								}
							}
						}
					}
				}
				JOINT RightShoulder
				{
					OFFSET 0 0 0
					CHANNELS 3 Zrotation Yrotation Xrotation
					JOINT RightArm
					{
						OFFSET -3.09725 1.62858 -0.14144
						CHANNELS 3 Zrotation Yrotation Xrotation
						JOINT RightForeArm
						{
							OFFSET -4.29104 -0.00000 0.00000
							CHANNELS 3 Zrotation Yrotation Xrotation
							JOINT RightHand
							{
								OFFSET -3.22720 -0.00000 -0.00000
								CHANNELS 3 Zrotation Yrotation Xrotation
								JOINT RightFingerBase
								{
									OFFSET 0 0 0
									CHANNELS 3 Zrotation Yrotation Xrotation
									JOINT RightHandIndex1
									{
										OFFSET -0.54362 -0.00000 -0.00000
										CHANNELS 3 Zrotation Yrotation Xrotation
										End Site
										{
											OFFSET -0.43828 -0.00000 -0.00000
										}
									}
								}
								JOINT RThumb
								{
									OFFSET 0 0 0
									CHANNELS 3 Zrotation Yrotation Xrotation
									End Site
									{
										OFFSET -0.44497 -0.00000 0.44497
									}
								}
							}
						}
					}
				}
			}
		}
	}
}
MOTION
Frames: 9
Frame Time: .0083333
-12.0804 15.9586 3.4316 -313.9060 -94.5472 325.2310 0.0000 0.0000 0.0000 -12.4922 -27.8975 -24.6309 0.5034 4.5482 12.6243 0.3265 -6.9050 -10.5608 0.0878 -1.9107 -5.2588 0.0000 0.0000 0.0000 47.0593 28.1049 29.0845 -0.4177 4.1483 -11.4943 -9.1415 -17.8969 -63.3306 -2.0650 -9.0002 25.7960 2.3375 3.5934 6.9199 1.9902 5.1971 -10.3564 -0.0760 2.1887 -15.3688 -1.1307 -1.7314 -21.1361 -1.9395 -1.6787 23.0768 -0.7869 -1.1764 10.9536 -0.0000 0.0000 0.0000 -79.5673 21.5405 8.1408 18.5143 -28.8107 -4.7945 -0.0000 -0.0000 6.5327 33.7405 25.8933 16.2613 -7.1250 0.0000 -0.0000 4.6921 60.1936 1.7413 -0.0000 0.0000 0.0000 69.8430 -20.1288 48.6314 -36.4576 45.8253 -15.8498 0.0000 -0.0000 -32.4289 -23.1703 -29.4552 11.8850 7.1250 -0.0000 -0.0000 9.3075 -61.3033 -3.7132
-12.0184 15.9540 3.4106 -315.7710 -95.1306 327.1300 0.0000 0.0000 0.0000 -11.7677 -27.7236 -24.7421 0.4770 4.4291 12.2871 0.3625 -6.8849 -11.0425 0.0683 -1.6864 -4.6398 0.0000 0.0000 0.0000 47.5346 28.4993 29.2596 -0.4357 4.2356 -11.7403 -9.0544 -18.0000 -63.1258 -2.0394 -8.9478 25.6321 2.6237 3.6395 6.9143 2.0023 5.2988 -10.3570 -0.2391 2.2035 -15.3396 -1.2847 -1.5474 -21.3740 -1.3356 -1.5314 23.5502 -0.5274 -1.0507 11.1830 -0.0000 -0.0000 0.0000 -79.3004 21.0989 8.8219 18.8090 -29.1806 -4.9374 -0.0000 -0.0000 6.2197 34.4666 25.4775 16.4503 -7.1250 0.0000 -0.0000 5.6698 59.9167 2.0680 -0.0000 -0.0000 0.0000 70.0348 -20.5075 48.6648 -34.9770 44.7957 -14.7971 0.0000 -0.0000 -32.2383 -23.3239 -28.6217 11.6696 7.1250 -0.0000 -0.0000 8.6517 -60.4944 -3.2830
-11.9548 15.9497 3.3891 -318.8510 -95.6003 330.3370 0.0000 0.0000 0.0000 -11.2085 -27.5243 -25.0004 0.4598 4.3498 12.0629 0.3945 -6.8993 -11.4651 0.0532 -1.4887 -4.0946 0.0000 0.0000 0.0000 47.7278 28.9913 29.2848 -0.4450 4.2801 -11.8661 -9.0063 -17.8012 -62.9151 -2.0852 -9.0414 25.9249 2.6260 3.6516 6.8240 2.0227 5.3092 -10.3916 -0.2139 2.2079 -15.3258 -1.4474 -1.3100 -21.7735 -0.7331 -1.3117 24.3024 -0.2553 -0.8961 11.5503 0.0000 -0.0000 0.0000 -79.1875 20.5852 9.1304 19.1104 -29.5556 -5.0852 -0.0000 -0.0000 5.8236 34.3230 26.4133 16.8942 -7.1250 0.0000 -0.0000 5.2966 60.9258 2.0587 0.0000 -0.0000 0.0000 70.0910 -20.7335 48.8774 -33.5181 43.7245 -13.7789 0.0000 -0.0000 -31.8802 -23.9517 -28.1480 11.8357 7.1250 -0.0000 -0.0000 7.6845 -60.1625 -2.8525
-11.8943 15.9466 3.3716 -321.3100 -95.9667 332.8980 0.0000 0.0000 0.0000 -10.7762 -27.5050 -25.1954 0.4479 4.2936 11.9042 0.4434 -6.8709 -12.0761 0.0479 -1.4125 -3.8844 0.0000 0.0000 0.0000 47.8249 29.3229 29.3548 -0.4660 4.3787 -12.1446 -8.9741 -17.4997 -62.7097 -2.2174 -9.3050 26.7540 2.6007 3.6408 6.6758 2.0463 5.2823 -10.3778 -0.1583 2.2018 -15.2181 -1.0208 -1.1637 -21.6069 -1.0822 -1.1622 24.3143 -0.4307 -0.8368 11.5163 0.0000 -0.0000 0.0000 -79.0224 20.5673 10.2233 20.1174 -30.7835 -5.5913 -0.0000 -0.0000 4.2934 33.4611 27.4375 16.9373 -7.1250 0.0000 -0.0000 3.9551 61.8316 1.6210 0.0000 -0.0000 0.0000 70.1511 -20.8148 48.9073 -32.1093 42.6341 -12.8148 0.0000 -0.0000 -31.0884 -24.0498 -28.7052 12.0980 7.1250 -0.0000 -0.0000 7.8715 -60.7580 -3.0341
-11.8400 15.9444 3.3589 -322.3920 -96.3202 334.0680 0.0000 0.0000 0.0000 -10.2839 -27.7246 -25.2007 0.4259 4.1883 11.6071 0.4880 -6.9217 -12.6252 0.0290 -1.0989 -3.0211 0.0000 0.0000 0.0000 47.9420 29.5139 29.4821 -0.5066 4.5627 -12.6654 -8.8632 -17.6448 -62.4505 -2.2828 -9.4318 27.1556 2.7627 3.6190 6.5144 2.0626 5.2638 -10.3635 -0.2147 2.1781 -15.0830 -0.2037 -0.9543 -21.1338 -1.8735 -0.9271 23.7170 -0.8101 -0.7526 11.1899 -0.0000 -0.0000 0.0000 -78.8831 20.3580 11.1121 20.9163 -31.7305 -6.0059 -0.0000 -0.0000 3.1921 33.4224 26.2511 16.2723 -7.1250 0.0000 -0.0000 4.2175 60.5091 1.5965 -0.0000 -0.0000 0.0000 70.3587 -20.8345 48.6279 -30.7894 41.5605 -11.9299 0.0000 -0.0000 -30.0540 -23.3817 -29.6063 12.0573 7.1250 -0.0000 -0.0000 9.1555 -61.5095 -3.6967
-11.7860 15.9433 3.3447 -323.8910 -96.6338 335.6320 0.0000 0.0000 0.0000 -9.8684 -27.8986 -25.1361 0.4044 4.0826 11.3093 0.5222 -7.0671 -13.0487 0.0225 -0.9688 -2.6628 0.0000 0.0000 0.0000 48.0655 29.7203 29.5814 -0.5349 4.6865 -13.0165 -8.7139 -17.9485 -62.1441 -2.2703 -9.4078 27.0795 2.8232 3.5887 6.4368 2.0609 5.2227 -10.3841 -0.2371 2.1510 -15.0528 -0.1798 -0.7116 -21.0618 -1.5304 -0.6891 23.7473 -0.6512 -0.5981 11.1910 0.0000 0.0000 0.0000 -78.8315 20.0499 11.7047 21.5474 -32.4617 -6.3412 -0.0000 -0.0000 2.7119 33.8107 25.1804 15.9045 -7.1250 0.0000 -0.0000 4.9308 59.4149 1.7385 0.0000 0.0000 0.0000 70.6296 -20.8237 48.3369 -29.4752 40.4393 -11.0676 0.0000 -0.0000 -29.1911 -23.0843 -29.4077 11.8202 7.1250 -0.0000 -0.0000 9.3773 -61.2336 -3.7259
-11.7266 15.9434 3.3240 -325.2950 -97.0219 337.0490 0.0000 0.0000 0.0000 -9.3387 -27.9534 -25.1445 0.3904 4.0121 11.1106 0.5706 -7.2861 -13.6293 0.0317 -1.1495 -3.1604 0.0000 0.0000 0.0000 48.3728 30.0306 29.6492 -0.5381 4.6999 -13.0546 -8.5661 -18.2233 -61.8324 -2.2395 -9.3481 26.8905 2.7881 3.5834 6.4702 2.0962 5.2150 -10.3809 -0.1790 2.1525 -15.0778 -0.7317 -0.5400 -21.4437 -0.5323 -0.5435 24.4171 -0.1765 -0.4599 11.5243 -0.0000 0.0000 0.0000 -78.8564 19.6201 12.1601 22.1307 -33.1244 -6.6571 -0.0000 -0.0000 2.5191 33.8854 25.7563 16.2694 -7.1250 0.0000 -0.0000 4.9000 60.0785 1.8053 -0.0000 0.0000 0.0000 70.9646 -20.6611 47.9599 -28.0998 39.2079 -10.1867 0.0000 -0.0000 -28.4335 -23.2811 -28.0540 11.4399 7.1250 -0.0000 -0.0000 8.3913 -59.9046 -3.0653
-11.6663 15.9422 3.3033 -324.8600 -97.5201 336.6070 0.0000 0.0000 0.0000 -8.4983 -28.0028 -25.1706 0.3708 3.9114 10.8275 0.6301 -7.4769 -14.3018 0.0343 -1.1952 -3.2860 0.0000 0.0000 0.0000 48.8311 30.3635 29.6389 -0.5397 4.7070 -13.0747 -8.3883 -18.6566 -61.5023 -2.1787 -9.2288 26.5136 3.0231 3.5757 6.5959 2.1895 5.2519 -10.3964 -0.2192 2.1456 -15.1673 -0.8728 -0.4261 -21.5962 -0.1470 -0.4517 24.8094 0.0021 -0.3859 11.7053 -0.0000 -0.0000 0.0000 -78.7826 19.3315 12.9912 22.7536 -33.8183 -7.0007 -0.0000 -0.0000 2.0032 33.9085 26.0701 16.4575 -7.1250 0.0000 -0.0000 4.8586 60.4337 1.8311 -0.0000 -0.0000 0.0000 71.3456 -20.4507 47.3147 -26.8024 37.9901 -9.3773 0.0000 -0.0000 -27.4326 -23.1712 -27.4904 11.1759 7.1250 -0.0000 -0.0000 8.2207 -59.3019 -2.8840
-11.6121 15.9402 3.2882 -324.5120 -97.9458 336.2480 0.0000 0.0000 0.0000 -7.7948 -28.2285 -24.9726 0.3383 3.7377 10.3399 0.7049 -7.6311 -15.0988 0.0282 -1.0831 -2.9775 0.0000 0.0000 0.0000 49.0864 30.5898 29.6158 -0.5556 4.7748 -13.2675 -8.2509 -18.9227 -61.2210 -2.1465 -9.1649 26.3124 3.2973 3.5366 6.6994 2.2718 5.2485 -10.4414 -0.2842 2.1128 -15.2746 -0.6541 -0.2510 -21.3795 -0.1839 -0.2795 24.9047 -0.0208 -0.2960 11.6983 0.0000 0.0000 0.0000 -78.5904 19.3060 14.2256 23.4891 -34.6193 -7.4143 -0.0000 -0.0000 1.1327 34.0452 25.6075 16.2789 -7.1250 0.0000 -0.0000 5.1272 59.9530 1.8739 0.0000 0.0000 0.0000 71.6062 -20.3215 46.5975 -25.7197 36.9306 -8.7187 0.0000 -0.0000 -26.2261 -22.6547 -27.9505 11.0690 7.1250 -0.0000 -0.0000 9.0366 -59.6499 -3.2483
